<?xml version="1.0" encoding="UTF-8"?>
<svg id="Calque_1" xmlns="http://www.w3.org/2000/svg" version="1.1" viewBox="0 0 300 50">
  <!-- Generator: Adobe Illustrator 29.3.1, SVG Export Plug-In . SVG Version: 2.1.0 Build 151)  -->
  <path d="M12.7,41.61c-1.83,0-3.33-.91-4.49-2.73-1.16-1.82-1.74-4.32-1.74-7.5,0-2.9.38-5.77,1.13-8.59.75-2.82,1.81-5.36,3.18-7.62,1.36-2.25,2.98-4.07,4.86-5.44,1.87-1.37,3.94-2.06,6.21-2.06,1.42,0,2.64.59,3.66,1.76,1.02,1.17,1.52,2.75,1.52,4.72v.88c0,.09-.02.2-.04.32l-5.71,1.62c-.35-.77-.76-1.16-1.22-1.16-.7,0-1.43.6-2.2,1.81-.77,1.2-1.5,2.64-2.2,4.31-.46,1.11-.88,2.25-1.24,3.43-.36,1.17-.65,2.27-.85,3.29-.2,1.02-.3,1.85-.3,2.5,0,.96.13,1.65.39,2.08.2.4.52.6.96.6s.91-.22,1.44-.67c.52-.45,1.01-1.01,1.46-1.69.45-.68.75-1.36.89-2.04l4.96,2.13c-1.42,3.46-3.11,6-5.07,7.62s-3.83,2.43-5.6,2.43Z"/>
  <path d="M22.98,41.56l2.26-12.04c.35-2.22.73-4.51,1.13-6.85.41-2.35.79-4.66,1.15-6.95.36-2.28.65-4.43.85-6.44,1.65-.56,3.44-.96,5.36-1.23,1.92-.26,3.82-.39,5.71-.39,2.21,0,3.71.51,4.51,1.53.8,1.02,1.2,2.39,1.2,4.12,0,1.57-.35,3.16-1.05,4.75-.7,1.59-1.6,3.03-2.72,4.31-1.12,1.28-2.35,2.29-3.68,3.03.52,1.24,1.08,2.59,1.68,4.05.59,1.47,1.15,2.86,1.68,4.19.29.77.59,1.54.89,2.32.31.77.6,1.54.89,2.32l-6.75,2.5-1.57-5.56c-.44-1.54-.84-3.03-1.2-4.47-.36-1.44-.57-2.45-.63-3.03l-.57.19c-.09.49-.18,1.03-.28,1.6-.1.57-.21,1.2-.33,1.88-.12.68-.23,1.33-.35,1.97-.12.63-.23,1.26-.35,1.88l-.78,4.4-7.06,1.94ZM33.21,21.46c.52-.06,1.17-.3,1.94-.72.77-.42,1.54-.93,2.31-1.55.77-.62,1.42-1.25,1.94-1.9.52-.65.78-1.22.78-1.71,0-.62-.34-1.03-1.02-1.23-.68-.2-1.58-.3-2.68-.3h-.96c-.17.03-.33.05-.48.05h-.44l-1.39,7.36Z"/>
  <path d="M42.49,41.56l5.71-32.93,13.76-1.25c-.2.68-.38,1.37-.52,2.08-.15.59-.28,1.2-.41,1.83-.13.63-.24,1.2-.33,1.69-.38.03-.91.05-1.61.07-.7.02-1.41.03-2.13.05-.73.02-1.35.02-1.87.02h-.83l-1.52,8.29,2.53-.14c.32-.03.65-.05.98-.05h1.85c.26,0,.46-.02.61-.05-.06.43-.11.86-.15,1.27-.04.42-.09.84-.15,1.27l-.39,2.55c-.15.03-.33.05-.57.05h-.83c-.32.03-.65.05-1,.05s-.68.02-1,.05c-.38.03-.77.05-1.18.05s-.84.02-1.31.05l-1.48,8.52,6.36-1.07-.44,5.28-14.07,2.32Z"/>
  <path d="M68.27,41.42c.06-.52.12-1.03.17-1.53.06-.49.12-.99.17-1.48l.26-2.59c.03-.43.06-.83.09-1.2.03-.37.06-.71.09-1.02h-3.79l-1.74,6.67c-.64.09-1.39.19-2.26.3s-1.68.21-2.44.3c-.46.06-.92.12-1.37.19-.45.06-.91.12-1.37.18l3.44-12.13c.41-1.45.87-3.1,1.39-4.96.52-1.85,1.05-3.75,1.59-5.7.54-1.95,1.05-3.77,1.52-5.49.48-1.71.86-3.16,1.15-4.33,1.97-.15,3.98-.34,6.03-.56,2.05-.22,4.04-.51,5.99-.88-.15,1.73-.28,3.68-.41,5.86-.13,2.18-.25,4.42-.35,6.74-.1,2.32-.21,4.6-.33,6.85-.06,2.13-.13,4.33-.22,6.6-.09,2.27-.17,4.59-.26,6.97-.44.06-.87.12-1.31.19-.44.06-.87.12-1.31.19-.73.12-1.52.26-2.4.42-.87.16-1.65.29-2.35.42ZM66.31,28.96c.17,0,.5-.02.98-.05.48-.03.94-.06,1.37-.09.44-.03.7-.05.78-.05,0-.4.06-1.22.17-2.45.12-1.23.23-2.53.35-3.89.06-.8.12-1.63.2-2.48.07-.85.15-1.72.24-2.62l.26-4.03-.65.05-1,3.98-2.7,11.62Z"/>
  <path d="M79.77,41.56c.32-1.7.65-3.39.98-5.07.33-1.68.65-3.34.94-4.98,1.1-5.87,2-11.49,2.7-16.86-.32-.06-.65-.1-1-.12-.35-.02-.68,0-1,.02-.7.06-1.38-.03-2.05-.28.03-.25.04-.52.04-.81v-1.9c0-.32.01-.64.04-.95.03-.34.04-.7.04-1.09s.01-.78.04-1.18c.75.06,1.51.11,2.26.14.75.03,1.51.05,2.26.05,2.15,0,4.2-.08,6.16-.23,1.96-.15,3.77-.34,5.42-.56l-.48,2.5-.39,2.18c-.15.8-.28,1.44-.39,1.9-.32.09-.64.17-.96.23-.32.06-.64.11-.96.14-.32.03-.65.08-.98.14-.33.06-.66.12-.98.19-.44,2.29-.79,4.26-1.07,5.93-.28,1.67-.52,3.27-.74,4.79-.22,1.53-.47,3.2-.76,5.02-.49,3.12-.93,6.28-1.31,9.49l-7.84,1.3Z"/>
  <path d="M91.83,41.47c.41-1.79.81-3.82,1.22-6.09.41-2.27.81-4.62,1.22-7.06.41-2.44.78-4.79,1.13-7.04.32-1.98.63-3.98.94-6.02.3-2.04.6-4.09.89-6.16l6.79-1.16-1.96,12.18c-.44,2.87-.82,5.45-1.15,7.73-.33,2.29-.65,4.45-.96,6.48-.3,2.04-.62,4.12-.94,6.25-.55,0-1.22.04-2,.12-.78.08-1.57.17-2.35.28-.78.11-1.44.21-1.98.3-.54.09-.82.15-.85.19Z"/>
  <path d="M102.98,41.93c.2-2.16.39-4.31.57-6.44.17-2.13.33-4.23.48-6.3.32-3.77.57-7.47.76-11.11.19-3.64.31-7.05.37-10.23,2.26,0,4.53-.11,6.79-.32-.15,1.79-.29,3.42-.44,4.89-.15,1.47-.28,2.77-.39,3.91l-.52,5.6c-.15,1.7-.27,3.13-.37,4.31-.1,1.17-.2,2.25-.28,3.24-.09.99-.2,2.07-.35,3.24h.78l4.88-24.64,2.4-.14c.38-.03.75-.05,1.13-.07.38-.02.77-.04,1.18-.07.41-.03.79-.06,1.15-.09.36-.03.7-.06,1.02-.09-.55,1.82-1.11,3.86-1.68,6.11-.57,2.25-1.13,4.58-1.7,6.99-.57,2.41-1.14,4.79-1.72,7.13-.46,1.98-.93,3.99-1.39,6.04-.46,2.05-.93,4.13-1.39,6.23l-11.28,1.81Z"/>
  <path d="M117.27,41.56l5.71-32.93,13.76-1.25c-.2.68-.38,1.37-.52,2.08-.15.59-.28,1.2-.41,1.83-.13.63-.24,1.2-.33,1.69-.38.03-.91.05-1.61.07-.7.02-1.41.03-2.13.05-.73.02-1.35.02-1.87.02h-.83l-1.52,8.29,2.53-.14c.32-.03.65-.05.98-.05h1.85c.26,0,.46-.02.61-.05-.06.43-.11.86-.15,1.27-.04.42-.09.84-.15,1.27l-.39,2.55c-.15.03-.33.05-.57.05h-.83c-.32.03-.65.05-1,.05s-.68.02-1,.05c-.38.03-.77.05-1.18.05s-.84.02-1.31.05l-1.48,8.52,6.36-1.07-.44,5.28-14.07,2.32Z"/>
  <path d="M142.88,41.75c-.41,0-.81-.02-1.22-.07-.41-.05-.81-.1-1.22-.16l2.31-12.46c.29-1.7.6-3.5.94-5.39.33-1.9.66-3.78.98-5.65.32-1.87.6-3.6.85-5.21.25-1.6.44-2.96.59-4.08,1.25-.25,2.51-.48,3.79-.69,1.28-.22,2.58-.32,3.92-.32,2.15,0,3.85.47,5.1,1.41,1.25.94,2.15,2.18,2.7,3.71s.83,3.2.83,5.02c0,1.64-.22,3.36-.65,5.16s-1.05,3.6-1.85,5.37c-.8,1.78-1.75,3.45-2.85,5.02-1.71,2.44-3.8,4.44-6.25,6-2.45,1.56-5.1,2.34-7.95,2.34ZM148.06,35.91c1.02-.71,1.98-1.79,2.9-3.24.91-1.45,1.78-3.2,2.59-5.23.72-1.88,1.29-3.67,1.7-5.35.41-1.68.61-3.08.61-4.19s-.3-2.04-.89-2.69c-.6-.65-1.53-.97-2.81-.97-.46,2.66-.94,5.11-1.42,7.36-.48,2.25-.94,4.52-1.39,6.81-.45,2.29-.88,4.79-1.28,7.5Z"/>
  <path d="M159.82,41.56l5.71-32.93,13.76-1.25c-.2.68-.38,1.37-.52,2.08-.15.59-.28,1.2-.41,1.83-.13.63-.24,1.2-.33,1.69-.38.03-.92.05-1.61.07-.7.02-1.41.03-2.13.05-.73.02-1.35.02-1.87.02h-.83l-1.52,8.29,2.53-.14c.32-.03.65-.05.98-.05h1.85c.26,0,.46-.02.61-.05-.06.43-.11.86-.15,1.27-.04.42-.09.84-.15,1.27l-.39,2.55c-.15.03-.33.05-.57.05h-.83c-.32.03-.65.05-1,.05s-.68.02-1,.05c-.38.03-.77.05-1.18.05s-.84.02-1.31.05l-1.48,8.52,6.36-1.07-.44,5.28-14.07,2.32Z"/>
  <path d="M176.89,41.93c.2-2.16.39-4.31.57-6.44.17-2.13.33-4.23.48-6.3.32-3.77.57-7.47.76-11.11.19-3.64.31-7.05.37-10.23,2.26,0,4.53-.11,6.79-.32-.15,1.79-.29,3.42-.44,4.89-.15,1.47-.28,2.77-.39,3.91l-.52,5.6c-.15,1.7-.27,3.13-.37,4.31-.1,1.17-.2,2.25-.28,3.24-.09.99-.2,2.07-.35,3.24h.78l4.88-24.64,2.4-.14c.38-.03.75-.05,1.13-.07.38-.02.77-.04,1.18-.07.41-.03.79-.06,1.15-.09s.7-.06,1.02-.09c-.55,1.82-1.11,3.86-1.68,6.11-.57,2.25-1.13,4.58-1.7,6.99s-1.14,4.79-1.72,7.13c-.46,1.98-.93,3.99-1.39,6.04-.46,2.05-.93,4.13-1.39,6.23l-11.28,1.81Z"/>
  <path d="M191.18,41.56l5.71-32.93,13.76-1.25c-.2.68-.38,1.37-.52,2.08-.15.59-.28,1.2-.41,1.83-.13.63-.24,1.2-.33,1.69-.38.03-.92.05-1.61.07-.7.02-1.41.03-2.13.05-.73.02-1.35.02-1.87.02h-.83l-1.52,8.29,2.53-.14c.32-.03.65-.05.98-.05h1.85c.26,0,.46-.02.61-.05-.06.43-.11.86-.15,1.27-.04.42-.09.84-.15,1.27l-.39,2.55c-.15.03-.33.05-.57.05h-.83c-.32.03-.65.05-1,.05s-.68.02-1,.05c-.38.03-.77.05-1.18.05s-.84.02-1.31.05l-1.48,8.52,6.36-1.07-.44,5.28-14.07,2.32Z"/>
  <path d="M206.2,41.61c.32-2.44.66-4.89,1.02-7.36s.74-4.85,1.13-7.16c.39-2.3.76-4.38,1.11-6.23.38-2.01.75-4.04,1.13-6.11.38-2.07.77-4.15,1.18-6.25l7.62-1.06-2.26,10.47c-.41,1.82-.82,3.77-1.24,5.86s-.81,4.1-1.15,6.04c-.35,1.95-.62,3.67-.83,5.19.73-.06,1.5-.1,2.33-.12s1.56-.02,2.2-.02c.03.71.09,1.46.17,2.25.09.79.18,1.47.28,2.04s.15.89.15.95h-.33c-.1,0-.21-.02-.33-.05h-.7c-1.13,0-2.39.05-3.77.16-1.38.11-2.74.28-4.09.51-1.35.23-2.56.53-3.64.9Z"/>
  <path d="M226.71,41.7c-1.92,0-3.48-.79-4.7-2.36-1.22-1.57-1.83-3.95-1.83-7.13,0-1.76.2-3.61.61-5.56.41-1.94.97-3.86,1.7-5.74.73-1.88,1.57-3.63,2.53-5.23,1.54-2.59,3.31-4.71,5.31-6.34,2-1.64,4.11-2.45,6.31-2.45,1.74,0,3.08.47,4.03,1.41.94.94,1.6,2.15,1.98,3.61.38,1.47.57,2.99.57,4.56,0,3.67-.53,7.09-1.59,10.26-1.06,3.17-2.43,5.84-4.12,8.03-1.68,2.25-3.48,3.98-5.38,5.16-1.9,1.19-3.71,1.78-5.42,1.78ZM229.06,34.06c1.31,0,2.46-.46,3.46-1.39,1-.93,1.85-2.11,2.55-3.54.7-1.44,1.22-2.94,1.57-4.52.35-1.57.52-2.99.52-4.26,0-.49-.04-1.03-.13-1.6-.09-.57-.28-1.07-.57-1.5-.29-.43-.74-.65-1.35-.65-1.34,0-2.54.52-3.62,1.55-1.07,1.03-1.97,2.34-2.7,3.91-.73,1.61-1.26,3.18-1.61,4.72-.35,1.54-.52,2.95-.52,4.21,0,.65.22,1.32.65,2.01s1.02,1.04,1.74,1.04Z"/>
  <path d="M240.17,41.56c.87-4.17,1.7-8.24,2.48-12.23.32-1.61.65-3.33.98-5.16.33-1.84.67-3.7,1.02-5.58.35-1.88.67-3.67.96-5.35.29-1.68.52-3.16.7-4.42,1.16-.37,2.42-.71,3.77-1.02,1.35-.31,2.56-.46,3.64-.46,1.74,0,3.12.39,4.14,1.18,1.02.79,1.74,1.85,2.18,3.17.44,1.33.65,2.78.65,4.35,0,1.73-.3,3.39-.89,4.98-.59,1.59-1.39,3.02-2.39,4.28-1,1.27-2.15,2.27-3.44,3.01-1.29.74-2.63,1.11-4.03,1.11h-.48c-.23,1.05-.45,2.19-.65,3.43-.2,1.24-.38,2.38-.52,3.43-.12.62-.22,1.24-.3,1.85-.09.62-.17,1.24-.26,1.85l-7.54,1.57ZM250.32,24.56c.67-.19,1.34-.66,2-1.41.67-.76,1.22-1.72,1.66-2.89.44-1.17.65-2.45.65-3.84,0-1.14-.24-2.01-.72-2.59-.48-.59-1.01-.88-1.59-.88-.32,2.04-.64,3.97-.96,5.79-.32,1.82-.67,3.77-1.05,5.83Z"/>
  <path d="M257.16,41.56l5.71-32.93,13.76-1.25c-.2.68-.38,1.37-.52,2.08-.15.59-.28,1.2-.41,1.83-.13.63-.24,1.2-.33,1.69-.38.03-.92.05-1.61.07-.7.02-1.41.03-2.13.05-.73.02-1.35.02-1.87.02h-.83l-1.52,8.29,2.53-.14c.32-.03.65-.05.98-.05h1.85c.26,0,.46-.02.61-.05-.06.43-.11.86-.15,1.27-.04.42-.09.84-.15,1.27l-.39,2.55c-.15.03-.33.05-.57.05h-.83c-.32.03-.65.05-1,.05s-.68.02-1,.05c-.38.03-.77.05-1.18.05s-.84.02-1.31.05l-1.48,8.52,6.36-1.07-.44,5.28-14.07,2.32Z"/>
  <path d="M271.83,41.56l2.26-12.04c.35-2.22.73-4.51,1.13-6.85.41-2.35.79-4.66,1.15-6.95.36-2.28.65-4.43.85-6.44,1.66-.56,3.44-.96,5.36-1.23,1.92-.26,3.82-.39,5.71-.39,2.21,0,3.71.51,4.51,1.53.8,1.02,1.2,2.39,1.2,4.12,0,1.57-.35,3.16-1.05,4.75-.7,1.59-1.6,3.03-2.72,4.31-1.12,1.28-2.34,2.29-3.68,3.03.52,1.24,1.08,2.59,1.68,4.05.59,1.47,1.15,2.86,1.68,4.19.29.77.59,1.54.89,2.32.3.77.6,1.54.89,2.32l-6.75,2.5-1.57-5.56c-.44-1.54-.83-3.03-1.2-4.47s-.57-2.45-.63-3.03l-.57.19c-.09.49-.18,1.03-.28,1.6-.1.57-.21,1.2-.33,1.88-.12.68-.23,1.33-.35,1.97-.12.63-.23,1.26-.35,1.88l-.78,4.4-7.06,1.94ZM282.07,21.46c.52-.06,1.17-.3,1.94-.72.77-.42,1.54-.93,2.31-1.55.77-.62,1.42-1.25,1.94-1.9.52-.65.78-1.22.78-1.71,0-.62-.34-1.03-1.02-1.23-.68-.2-1.58-.3-2.68-.3h-.96c-.17.03-.33.05-.48.05h-.44l-1.39,7.36Z"/>
</svg>