<?xml version="1.0" encoding="UTF-8"?>
<svg id="Calque_1" data-name="Calque 1" xmlns="http://www.w3.org/2000/svg" viewBox="0 0 385.5 424.5">
  <defs>
    <style>
      .cls-1 {
        fill: #3c4d94;
      }
    </style>
  </defs>
  <path class="cls-1" d="M65.5,405l-49-122.5C4,251.5,0,242,0,209.5V77.5c0-9,2.5-14.5,7-18.5L71.5,4.5c3.5-3,9-4.5,16-4.5h79.5c16,0,24.5,7.5,24.5,23v138c0,6.5,1.5,12,3.5,19l1.5,3.5v-106c0-9,2.5-14.5,7-18.5L268,4.5c3.5-3,9-4.5,16-4.5h78.5c16.5,0,23,7,23,23v132c0,32.5-4,42-16.5,73l-49,122.5c-2,6-5.5,10.5-9,13.5l-64.5,53.5c-5.5,5-12,7-21,7H95.5c-15.5,0-24-5-30-19.5ZM315.5,348.5l49-122.5c12-30,16-39.5,16-71V23c0-12.5-5-18-18-18h-78.5c-12.5,0-18,5.5-18,18v137.5c0,7-1.5,13-4,20.5l-23.5,70.5c-2,6.5-4,8.5-9.5,8.5h-5.5c-5.5,0-7.5-2-9.5-8.5l-23.5-70c-2.5-7.5-4-13.5-4-20.5V23c0-12.5-7-18-19.5-18h-79.5c-12.5,0-18,5.5-18,18v132c0,31.5,4,41,16,71l49,122.5c5,12.5,12.5,16.5,25.5,16.5h130c13,0,20.5-4,25.5-16.5ZM131,50v108c0,17.5,2.5,33,8,46.5l33,80c7,17.5,12.5,30.5,31.5,30.5h44c19,0,24.5-13,31.5-30.5l33-80c5.5-13.5,8-29,8-46.5V50h5v108c0,18.5-2,34-8,48.5l-33,80c-8,19.5-15.5,33.5-36.5,33.5h-44c-21,0-28.5-14-36.5-33.5l-33-80c-6-14.5-8-30-8-48.5V50h5Z"/>
</svg>